<svg width="30" height="30" viewBox="0 0 30 30" fill="none" xmlns="http://www.w3.org/2000/svg">
<path d="M15 2.5C8.09625 2.5 2.5 8.09625 2.5 15C2.5 18.82 4.2177 22.2339 6.91895 24.5264L11.98 15.7275L11.6187 15.3662C11.3824 15.1312 11.25 14.8137 11.25 14.4824V9.6875C11.25 9.17 11.67 8.75 12.1875 8.75H13.75V6.875C13.75 6.53 14.03 6.25 14.375 6.25H15.625C15.97 6.25 16.25 6.53 16.25 6.875V8.75H17.8125C18.33 8.75 18.75 9.17 18.75 9.6875V14.4824C18.75 14.8137 18.6188 15.1325 18.3838 15.3662L18.0225 15.7275L19.8608 18.9282C20.5171 18.1145 20.9821 17.1327 21.1646 16.0352C21.2783 15.3539 21.9213 14.8948 22.6025 15.0073C23.2838 15.1198 23.7441 15.7641 23.6304 16.4453C23.3191 18.3166 22.4343 19.9609 21.1743 21.2134L23.0811 24.5264C25.7823 22.2339 27.5 18.82 27.5 15C27.5 8.09625 21.9037 2.5 15 2.5ZM23.0811 24.5264C22.4436 25.0676 21.7543 25.5483 21.0181 25.9546L22.5366 28.5938C22.5916 28.6887 22.6687 28.7682 22.7637 28.8232L24.3213 29.729C24.3663 29.754 24.4177 29.7681 24.4727 29.7681C24.6452 29.7681 24.7852 29.6281 24.7852 29.4556V27.6611C24.7839 27.5511 24.7559 27.4436 24.7021 27.3486L23.0811 24.5264ZM21.0181 25.9546L19.1479 22.7051C17.9079 23.3701 16.4975 23.75 15 23.75C13.5287 23.75 12.1183 23.3901 10.8521 22.7051L8.98193 25.9546C10.7669 26.9371 12.8175 27.5 15 27.5C17.1825 27.5 19.2331 26.9371 21.0181 25.9546ZM8.98193 25.9546C8.24443 25.5508 7.5552 25.0676 6.91895 24.5264L5.29785 27.3486C5.24285 27.4436 5.21484 27.5499 5.21484 27.6587V29.4556C5.21484 29.6281 5.35484 29.7681 5.52734 29.7681C5.58234 29.7681 5.63615 29.7516 5.68115 29.7266L7.23633 28.8208C7.33133 28.7658 7.41082 28.6863 7.46582 28.5913L8.98193 25.9546ZM15 11.25C14.5027 11.25 14.0258 11.4475 13.6742 11.7992C13.3225 12.1508 13.125 12.6277 13.125 13.125C13.125 13.6223 13.3225 14.0992 13.6742 14.4508C14.0258 14.8025 14.5027 15 15 15C15.4973 15 15.9742 14.8025 16.3258 14.4508C16.6775 14.0992 16.875 13.6223 16.875 13.125C16.875 12.6277 16.6775 12.1508 16.3258 11.7992C15.9742 11.4475 15.4973 11.25 15 11.25ZM13.811 17.561L12.0996 20.5347C12.9871 21.0022 13.9725 21.25 15 21.25C16.045 21.25 17.0255 20.9799 17.8955 20.5249L16.189 17.561L15.6665 18.0835C15.2978 18.4522 14.7022 18.4522 14.3335 18.0835L13.811 17.561Z" fill="#404040"/>
</svg>
