<svg width="30" height="30" viewBox="0 0 30 30" fill="none" xmlns="http://www.w3.org/2000/svg">
<path d="M14.7125 14.005H12.445V10.2075H15.135C16.5975 10.2075 17.4275 10.86 17.4275 12.04C17.4275 13.3 16.4612 14.005 14.71 14.005H14.7125ZM15.1175 15.5125H12.4462V19.6975H15.235C17.0587 19.6975 18.025 18.9663 18.025 17.5913C18.025 16.2163 17.0312 15.5125 15.1175 15.5125ZM30 14.1925V15.715C28.59 15.85 27.7288 16.895 27.2175 18.55C26.7088 20.1988 26.6388 22.2212 26.6925 23.7825C26.7488 25.4075 25.4825 26.9075 23.7713 26.9075H6.23125C4.51875 26.9075 3.2525 25.4075 3.31 23.7825C3.36375 22.2212 3.29375 20.1988 2.785 18.55C2.2725 16.895 1.41 15.85 0 15.715V14.1925C1.41 14.0575 2.27375 13.0125 2.78375 11.3575C3.29375 9.70875 3.36375 7.68625 3.30875 6.125C3.2525 4.5 4.51875 3 6.23125 3H23.7713C25.4838 3 26.7488 4.5 26.6925 6.125C26.6388 7.68625 26.7088 9.70875 27.2175 11.3575C27.7288 13.0125 28.59 14.0575 30 14.1925ZM20.0912 17.7137C20.0912 16.0212 18.9 14.7975 17.1312 14.6037V14.5325C18.4312 14.3212 19.4512 13.1138 19.4512 11.7663C19.4512 9.845 17.935 8.59375 15.6237 8.59375H10.4237V21.3088H15.65C18.4225 21.3088 20.0912 19.9512 20.0912 17.7137Z" fill="#404040"/>
</svg>
