<svg width="30" height="30" viewBox="0 0 30 30" fill="none" xmlns="http://www.w3.org/2000/svg">
<path d="M5 4.5C5 2.01472 7.01472 0 9.5 0H14.3103V9.30446H9.5C7.01472 9.30446 5 7.28974 5 4.80446V4.5Z" fill="#404040"/>
<path d="M5 14.8383C5 12.353 7.01472 10.3383 9.5 10.3383H14.3103V19.6427H9.5C7.01472 19.6427 5 17.628 5 15.1427V14.8383Z" fill="#404040"/>
<path d="M5 25.1766C5 22.6913 7.01472 20.6766 9.5 20.6766H14.3103V25.481C14.3103 27.9663 12.2956 29.981 9.81035 29.981H9.5C7.01472 29.981 5 27.9663 5 25.481V25.1766Z" fill="#404040"/>
<path d="M15.3448 0H20.1552C22.6405 0 24.6552 2.01472 24.6552 4.5V4.80446C24.6552 7.28974 22.6405 9.30446 20.1552 9.30446H15.3448V0Z" fill="#404040"/>
<rect x="15.3448" y="10.3383" width="9.31034" height="9.30446" rx="4.65223" fill="#404040"/>
</svg>
