<svg width="30" height="30" viewBox="0 0 30 30" fill="none" xmlns="http://www.w3.org/2000/svg">
<g clip-path="url(#clip0_119_1277)">
<path d="M29.4325 13.6619L16.3337 0.564427C15.5787 -0.189322 14.3562 -0.189322 13.5987 0.564427L10.885 3.28318L14.335 6.73318C15.1412 6.46443 16.0587 6.64568 16.6962 7.28443C17.3412 7.92818 17.5187 8.85693 17.2437 9.65943L20.5662 12.9844C21.3725 12.7057 22.3 12.8869 22.9412 13.5282C23.8425 14.4282 23.8425 15.8832 22.9412 16.7832C22.0425 17.6819 20.59 17.6819 19.6912 16.7832C19.0175 16.1069 18.8487 15.1119 19.1862 14.2882L16.075 11.1932V19.3494C16.295 19.4569 16.5025 19.6032 16.685 19.7844C17.5762 20.6857 17.5762 22.1382 16.685 23.0344C15.7862 23.9357 14.3237 23.9357 13.4237 23.0344C12.525 22.1357 12.525 20.6857 13.4237 19.7869C13.6512 19.5619 13.9075 19.3919 14.18 19.2794V11.0432C13.9087 10.9294 13.65 10.7657 13.43 10.5419C12.7487 9.86068 12.585 8.86443 12.935 8.03068L9.545 4.62443L0.5625 13.6007C-0.1875 14.3569 -0.1875 15.5807 0.5625 16.3369L13.6625 29.4332C14.4175 30.1882 15.64 30.1882 16.395 29.4332L29.4325 16.3957C30.1887 15.6419 30.1887 14.4182 29.4325 13.6619Z" fill="#404040"/>
</g>
<defs>
<clipPath id="clip0_119_1277">
<rect width="30" height="30" fill="white"/>
</clipPath>
</defs>
</svg>
