<svg width="35" height="35" viewBox="0 0 35 35" fill="none" xmlns="http://www.w3.org/2000/svg">
<path fill-rule="evenodd" clip-rule="evenodd" d="M18.0474 2C9.17069 2 2 9.10063 2 17.8782C2 24.9002 6.58497 30.8479 12.9826 32.9441C13.7823 33.1013 14.0755 32.6035 14.0755 32.1842C14.0755 31.8174 14.0489 30.5597 14.0489 29.2497C9.5972 30.1929 8.66421 27.3631 8.66421 27.3631C7.94447 25.529 6.8782 25.0574 6.8782 25.0574C5.41207 24.0879 6.98483 24.0879 6.98483 24.0879C8.61089 24.1927 9.46391 25.7124 9.46391 25.7124C10.9034 28.123 13.1959 27.4417 14.1289 27.0225C14.2621 26.0007 14.6887 25.2932 15.1418 24.9002C11.5965 24.5334 7.83785 23.1709 7.83785 17.0659C7.83785 15.3366 8.47761 13.9217 9.49057 12.7951C9.33063 12.402 8.77083 10.7775 9.65051 8.5766C9.65051 8.5766 11.01 8.15737 14.0489 10.2011C15.3551 9.86048 16.7146 9.67707 18.0741 9.67707C19.4336 9.67707 20.8197 9.86048 22.0993 10.2011C25.1648 8.15737 26.4976 8.5766 26.4976 8.5766C27.3773 10.7513 26.8175 12.402 26.6576 12.7951C27.6972 13.8955 28.3103 15.3104 28.3103 17.0659C28.3103 23.1709 24.5783 24.5072 20.9797 24.9002C21.5661 25.398 22.0726 26.3413 22.0726 27.8348C22.0726 29.9571 22.0459 31.6864 22.0459 32.2104C22.0459 32.6297 22.3392 33.1275 23.1389 32.9703C29.5098 30.8742 34.1215 24.9264 34.1215 17.9044C34.1481 9.12683 26.9508 2.0262 18.1007 2.0262" fill="#404040"/>
</svg>
