<svg width="30" height="30" viewBox="0 0 30 30" fill="none" xmlns="http://www.w3.org/2000/svg">
<g clip-path="url(#clip0_119_1256)">
<path d="M20.0238 18.334C20.598 17.9414 21.3949 17.6016 21.3949 17.6016C21.3949 17.6016 19.1273 18.0117 16.8715 18.1992C14.1117 18.4277 11.1468 18.4746 9.65857 18.2754C6.13708 17.8066 11.5922 16.5117 11.5922 16.5117C11.5922 16.5117 9.47693 16.3711 6.86951 17.625C3.79333 19.1133 14.4867 19.793 20.0238 18.334ZM15.0199 16.4531C13.9066 13.9512 10.1508 11.7539 15.0199 7.91016C21.0937 3.11719 17.9789 0 17.9789 0C19.2386 4.95117 13.5492 6.45117 11.4926 9.52734C10.0922 11.6309 12.1781 13.8867 15.0199 16.4531ZM21.7347 6.12891C21.7406 6.12891 11.4691 8.69531 16.3734 14.3437C17.8207 16.0078 15.9926 17.5078 15.9926 17.5078C15.9926 17.5078 19.6664 15.6094 17.9789 13.2363C16.4027 11.0215 15.1957 9.91992 21.7347 6.12891ZM21.3773 21.9785C21.3453 22.0343 21.3059 22.0856 21.2601 22.1309C28.7777 20.1562 26.0121 15.1641 22.4203 16.4297C22.2263 16.501 22.0587 16.6298 21.9398 16.7988C22.1496 16.7229 22.3651 16.6641 22.5843 16.623C24.4008 16.2422 27.0082 19.0547 21.3773 21.9785ZM24.1406 25.6289C24.1406 25.6289 24.9902 26.3262 23.209 26.8711C19.8164 27.8965 9.09958 28.207 6.12302 26.9121C5.05076 26.4492 7.06052 25.7988 7.69333 25.6641C8.34958 25.5234 8.73044 25.5469 8.73044 25.5469C7.54099 24.709 1.03708 27.1934 5.42576 27.9023C17.3929 29.8477 27.2461 27.0293 24.1406 25.6289ZM11.0414 23.2031C6.43005 24.4922 13.848 27.1523 19.7191 24.6387C19.1465 24.4162 18.5938 24.1457 18.0668 23.8301C15.4476 24.3281 14.2347 24.3633 11.8558 24.0937C9.89294 23.8711 11.0414 23.2031 11.0414 23.2031ZM21.5765 28.8984C16.9652 29.7656 11.2758 29.666 7.90661 29.1094C7.90661 29.1035 8.59802 29.6777 12.1488 29.9062C17.5511 30.252 25.848 29.7129 26.0414 27.1582C26.0414 27.1582 25.6664 28.125 21.5765 28.8984ZM19.0218 20.6836C15.5531 21.3516 13.5433 21.334 11.0062 21.0703C9.04333 20.8652 10.3265 19.916 10.3265 19.916C5.2406 21.6035 13.1508 23.5137 20.2582 21.4336C19.7988 21.2714 19.3779 21.0161 19.0218 20.6836Z" fill="#404040"/>
</g>
<defs>
<clipPath id="clip0_119_1256">
<rect width="30" height="30" fill="white"/>
</clipPath>
</defs>
</svg>
