<svg width="30" height="30" viewBox="0 0 30 30" fill="none" xmlns="http://www.w3.org/2000/svg">
<g clip-path="url(#clip0_119_1292)">
<path d="M15.63 0C15.4363 0 15.2363 0.01 15.03 0.02625C9.7475 0.4425 11.1488 6.035 11.0675 7.89875C10.9725 9.26375 10.6925 10.34 9.755 11.6737C8.64875 12.9875 7.09625 15.1112 6.36 17.325C6.0125 18.365 5.8475 19.43 6.00125 20.4363C5.94424 20.4824 5.89741 20.5398 5.86375 20.605C5.53875 20.94 5.30125 21.355 5.035 21.6537C4.78625 21.9025 4.42875 21.9875 4.03875 22.1537C3.6475 22.3237 3.21625 22.49 2.95875 23.0037C2.84625 23.24 2.78875 23.4962 2.79375 23.7562C2.79375 24.005 2.8275 24.2563 2.8625 24.4263C2.935 24.925 3.0075 25.3362 2.9125 25.6387C2.60125 26.4887 2.5625 27.07 2.78 27.4938C2.9975 27.9113 3.44875 28.0813 3.955 28.245C4.9675 28.495 6.3425 28.4137 7.4225 28.995C8.58 29.5775 9.755 29.8325 10.6925 29.5825C11.35 29.4375 11.905 29.0025 12.2025 28.4C12.9363 28.3962 13.74 28.0637 15.0275 27.9825C15.9013 27.91 16.995 28.3163 18.2488 28.2325C18.28 28.4 18.3275 28.48 18.3913 28.6488L18.395 28.6525C18.8838 29.625 19.7863 30.0675 20.75 29.9913C21.7138 29.9163 22.74 29.3213 23.5713 28.3588C24.36 27.4025 25.675 27.0038 26.5438 26.48C26.9788 26.2313 27.33 25.8937 27.355 25.4137C27.3838 24.9137 27.105 24.4 26.4625 23.6937V23.5725L26.4588 23.5687C26.2463 23.3187 26.1463 22.9 26.0363 22.4113C25.93 21.91 25.8088 21.4287 25.4213 21.1037H25.4175C25.3438 21.0362 25.2638 21.02 25.1825 20.935C25.1126 20.8862 25.0302 20.8584 24.945 20.855C25.4838 19.2575 25.275 17.6675 24.7288 16.2375C24.0625 14.475 22.8975 12.94 22.01 11.8837C21.015 10.6275 20.04 9.4375 20.06 7.67375C20.0925 4.98375 20.355 0.0075 15.63 0ZM16.2913 4.25625H16.3075C16.5738 4.25625 16.8025 4.33375 17.0375 4.50375C17.275 4.6725 17.45 4.91875 17.585 5.17C17.7163 5.49375 17.7825 5.74375 17.7925 6.075C17.7925 6.05 17.8 6.025 17.8 6V6.13125C17.7972 6.12274 17.7956 6.11392 17.795 6.105L17.79 6.075C17.7875 6.37878 17.7237 6.67894 17.6025 6.9575C17.5441 7.11423 17.4534 7.2569 17.3363 7.37625C17.3008 7.35625 17.2641 7.33871 17.2263 7.32375C17.0963 7.2675 16.9788 7.24375 16.8713 7.1575C16.7822 7.12201 16.6902 7.09441 16.5963 7.075C16.6588 7 16.7788 6.90875 16.825 6.8275C16.8913 6.6675 16.9275 6.4975 16.935 6.325V6.3C16.9378 6.13023 16.9121 5.96121 16.8588 5.8C16.8025 5.6325 16.7325 5.55 16.63 5.38375C16.525 5.30125 16.4213 5.21875 16.2963 5.21875H16.2763C16.16 5.21875 16.0563 5.25625 15.9488 5.38375C15.83 5.49952 15.742 5.64299 15.6925 5.80125C15.6261 5.96007 15.588 6.1293 15.58 6.30125V6.325C15.5825 6.43625 15.59 6.54875 15.605 6.65875C15.3638 6.575 15.0575 6.49 14.8463 6.40625C14.8336 6.32346 14.8261 6.23997 14.8238 6.15625V6.13125C14.8139 5.80128 14.878 5.47328 15.0113 5.17125C15.1138 4.89625 15.3013 4.66375 15.5488 4.505C15.7624 4.34305 16.0231 4.25652 16.2913 4.25625ZM12.5888 4.33H12.6338C12.8113 4.33 12.9713 4.39 13.1325 4.49875C13.315 4.66 13.4625 4.85875 13.5625 5.08C13.675 5.32875 13.7375 5.58 13.7538 5.91375V5.91875C13.7625 6.08625 13.7613 6.16875 13.7513 6.25125V6.35125C13.7138 6.36 13.6813 6.37375 13.6475 6.38125C13.4575 6.45 13.305 6.55 13.1563 6.63125C13.1713 6.51875 13.1725 6.40625 13.16 6.2975V6.27875C13.145 6.1125 13.11 6.02875 13.0575 5.8625C13.0185 5.7351 12.947 5.62007 12.85 5.52875C12.8192 5.50074 12.7831 5.47922 12.7438 5.46547C12.7045 5.45173 12.6628 5.44604 12.6213 5.44875H12.595C12.5063 5.45625 12.4325 5.49875 12.3625 5.61375C12.2828 5.71053 12.2309 5.82721 12.2125 5.95125C12.1787 6.08599 12.169 6.22563 12.1838 6.36375V6.3825C12.1988 6.55125 12.23 6.6325 12.2838 6.8C12.3413 6.9675 12.4063 7.05 12.4913 7.135C12.5038 7.14625 12.5163 7.1575 12.5338 7.165C12.4463 7.23625 12.3875 7.2525 12.3138 7.335C12.267 7.37635 12.2107 7.40555 12.15 7.42C12.0201 7.26354 11.905 7.09531 11.8063 6.9175C11.6881 6.65482 11.6223 6.37162 11.6125 6.08375C11.5918 5.80158 11.6258 5.51806 11.7125 5.24875C11.7814 5.00315 11.902 4.77512 12.0663 4.58C12.2263 4.41375 12.3913 4.33 12.5888 4.33ZM14.3013 6.4625C14.7163 6.4625 15.2175 6.54375 15.8213 6.96125C16.1875 7.21125 16.475 7.2975 17.1363 7.54625H17.14C17.4588 7.71625 17.6463 7.87875 17.7375 8.045V7.88125C17.7824 7.97214 17.8073 8.07155 17.8108 8.17285C17.8142 8.27415 17.7961 8.37502 17.7575 8.46875C17.6038 8.85625 17.1125 9.2725 16.4288 9.52125V9.52375C16.0938 9.6925 15.8025 9.94 15.46 10.105C15.115 10.2737 14.725 10.47 14.195 10.4387C14.0046 10.4486 13.8142 10.4201 13.635 10.355C13.4966 10.2797 13.3622 10.1971 13.2325 10.1075C12.9888 9.93875 12.7788 9.6925 12.4675 9.52625V9.52H12.4613C11.9613 9.2125 11.6913 8.88 11.6038 8.6325C11.5163 8.2975 11.5975 8.045 11.845 7.8825C12.125 7.71375 12.32 7.54375 12.4488 7.4625C12.5788 7.37 12.6275 7.335 12.6688 7.29875H12.6713V7.295C12.8825 7.0425 13.2163 6.7075 13.72 6.54375C13.8938 6.49875 14.0875 6.4625 14.3025 6.4625H14.3013ZM17.8013 9.14C18.2488 10.9112 19.2963 13.4837 19.97 14.7312C20.3275 15.3987 21.0387 16.805 21.3475 18.5113C21.5425 18.505 21.76 18.5338 21.9888 18.5913C22.7963 16.5025 21.3063 14.2575 20.6275 13.6337C20.3525 13.3837 20.3375 13.215 20.4738 13.215C21.2113 13.8825 22.18 15.18 22.5313 16.6613C22.6938 17.33 22.7313 18.0412 22.5575 18.7487C22.6413 18.7837 22.7263 18.8237 22.8138 18.8325C24.1038 19.5 24.58 20.005 24.3513 20.7538V20.7C24.2763 20.6962 24.2013 20.7 24.1263 20.7H24.1063C24.295 20.1162 23.8788 19.6688 22.775 19.17C21.6313 18.67 20.7175 18.75 20.5625 19.7512C20.5525 19.805 20.5462 19.8337 20.54 19.92C20.455 19.9487 20.3663 19.9863 20.2788 20C19.7413 20.335 19.4513 20.8363 19.2875 21.4838C19.125 22.15 19.075 22.9287 19.0313 23.82V23.8238C19.0063 24.2413 18.8188 24.8713 18.6325 25.5113C16.7575 26.8513 14.1575 27.4338 11.9475 25.9288C11.8088 25.6863 11.64 25.4625 11.445 25.2625C11.3518 25.1074 11.236 24.9671 11.1013 24.8463C11.3288 24.8463 11.5238 24.8087 11.6825 24.7625C11.8623 24.6791 12.0029 24.5295 12.075 24.345C12.21 24.0112 12.075 23.4737 11.6438 22.8912C11.2125 22.3075 10.48 21.6475 9.40875 20.99C8.62125 20.49 8.17625 19.9025 7.97125 19.245C7.765 18.5775 7.7925 17.8888 7.9525 17.1888C8.25875 15.8513 9.04375 14.5512 9.545 13.735C9.67875 13.6537 9.59125 13.9037 9.035 14.9525C8.54 15.8912 7.61 18.0737 8.8825 19.77C8.93057 18.5324 9.20466 17.314 9.69125 16.175C10.3963 14.5775 11.87 11.795 11.9863 9.59C12.0463 9.635 12.2575 9.75875 12.3475 9.8425C12.62 10.0088 12.8225 10.2587 13.085 10.4237C13.3475 10.675 13.6813 10.8425 14.18 10.8425C14.2288 10.8462 14.2738 10.85 14.3175 10.85C14.8325 10.85 15.23 10.6825 15.5638 10.515C15.9263 10.3475 16.2138 10.0975 16.4888 10.015H16.495C17.0788 9.84625 17.5388 9.5125 17.8 9.14H17.8013ZM20.5325 20.3375C20.5788 21.0875 20.9613 21.8937 21.635 22.0587C22.37 22.2262 23.4275 21.6425 23.8738 21.1025L24.1375 21.09C24.5313 21.0812 24.8588 21.1025 25.1963 21.425L25.2 21.4287C25.46 21.6775 25.5813 22.0912 25.6888 22.5237C25.795 23.0237 25.8812 23.4987 26.2 23.8562C26.8075 24.515 27.0063 24.9888 26.995 25.2813L26.9988 25.2725V25.295L26.995 25.2813C26.9763 25.6088 26.7638 25.775 26.3725 26.0238C25.585 26.525 24.19 26.9137 23.3013 27.9862C22.5288 28.9075 21.5888 29.4112 20.7563 29.475C19.9263 29.5412 19.21 29.225 18.7888 28.3525L18.7825 28.3488C18.52 27.8488 18.6325 27.0675 18.8525 26.2363C19.0725 25.4013 19.3875 24.5562 19.4313 23.865C19.4775 22.9725 19.5263 22.1962 19.675 21.5975C19.825 21.0162 20.06 20.6013 20.4763 20.3675L20.5325 20.34V20.3375ZM7.015 20.3988H7.0275C7.09375 20.3988 7.15875 20.405 7.22375 20.4163C7.69375 20.485 8.10625 20.8325 8.5025 21.3562L9.64 23.4363L9.64375 23.44C9.9475 24.1063 10.5863 24.77 11.13 25.4862C11.6725 26.2337 12.0925 26.9 12.0413 27.4487V27.4563C11.97 28.3863 11.4413 28.8913 10.635 29.0738C9.82875 29.2425 8.735 29.0763 7.64125 28.4938C6.43125 27.8238 4.99375 27.9075 4.07 27.7413C3.60875 27.6588 3.3075 27.4912 3.16625 27.2412C3.02875 26.9912 3.025 26.4887 3.32 25.7037V25.6988L3.3225 25.695C3.46875 25.2775 3.36 24.755 3.28875 24.2975C3.22 23.7962 3.185 23.41 3.3425 23.1225C3.5425 22.705 3.8375 22.6225 4.205 22.4563C4.5725 22.2875 5.005 22.2038 5.34875 21.8688H5.35125V21.8663C5.67125 21.5313 5.9075 21.115 6.18625 20.8188C6.42375 20.5675 6.66125 20.3988 7.015 20.3988ZM15.9638 9.05625C15.42 9.3075 14.7825 9.725 14.1038 9.725C13.4263 9.725 12.8913 9.39125 12.5038 9.1425C12.3113 8.975 12.1538 8.8075 12.0375 8.72375C11.8325 8.55625 11.8575 8.3075 11.945 8.3075C12.0813 8.3275 12.1063 8.475 12.1938 8.5575C12.3138 8.64 12.4625 8.8075 12.6438 8.97375C13.0088 9.22375 13.4938 9.5575 14.1025 9.5575C14.7088 9.5575 15.4188 9.22375 15.85 8.975C16.0938 8.80625 16.4063 8.5575 16.66 8.39125C16.855 8.22125 16.8463 8.0575 17.0088 8.0575C17.1688 8.0775 17.0513 8.225 16.825 8.4725C16.5477 8.68218 16.2599 8.87744 15.9625 9.0575L15.9638 9.05625ZM14.6113 7.0775V7.05C14.6038 7.025 14.6275 6.9975 14.6475 6.9875C14.74 6.93375 14.8725 6.95375 14.9725 6.9925C15.0513 6.9925 15.1725 7.07625 15.16 7.16125C15.1525 7.2225 15.0538 7.24375 14.9913 7.24375C14.9225 7.24375 14.8763 7.19 14.815 7.15875C14.75 7.13625 14.6325 7.14875 14.6113 7.0775ZM13.9225 7.0775C13.8975 7.15 13.7813 7.13875 13.715 7.16C13.6563 7.19125 13.6075 7.245 13.54 7.245C13.4775 7.245 13.3775 7.22 13.37 7.16C13.3575 7.0775 13.48 6.99375 13.5575 6.99375C13.6575 6.955 13.7875 6.935 13.8813 6.9875C13.905 6.99875 13.9263 7.025 13.9188 7.05V7.075H13.9225V7.0775Z" fill="#404040"/>
</g>
<defs>
<clipPath id="clip0_119_1292">
<rect width="30" height="30" fill="white"/>
</clipPath>
</defs>
</svg>
