<svg width="30" height="30" viewBox="0 0 30 30" fill="none" xmlns="http://www.w3.org/2000/svg">
<path d="M20.5063 6.87626C20.3625 6.87626 20.265 6.89376 20.1638 6.91751V6.93376H20.1813C20.2488 7.06376 20.3637 7.15876 20.4487 7.27501C20.5162 7.40876 20.5738 7.54251 20.6413 7.67501L20.6588 7.65626C20.7763 7.57376 20.8337 7.44126 20.8337 7.24001C20.7837 7.18126 20.7762 7.12251 20.7337 7.06501C20.6837 6.98126 20.5762 6.94001 20.5087 6.87376L20.5063 6.87626ZM7.2125 23.3688H6.05375C6.02116 21.5272 5.90856 19.688 5.71625 17.8563H5.70625L3.94375 23.3688H3.0625L1.3125 17.8563H1.3C1.16312 19.6909 1.08183 21.5292 1.05625 23.3688H0C0.06875 20.9113 0.24 18.6063 0.5125 16.4563H1.95L3.61875 21.5363H3.62875L5.3125 16.4563H6.68125C6.98375 18.975 7.16125 21.2813 7.21625 23.3688H7.2125ZM12.2337 18.2688C11.7612 20.825 11.1388 22.685 10.3688 23.8438C9.76625 24.7388 9.10625 25.185 8.39 25.185C8.19875 25.185 7.965 25.1275 7.6825 25.0125V24.395C7.82 24.4163 7.9825 24.4275 8.165 24.4275C8.5 24.4275 8.76875 24.3338 8.97375 24.15C9.22 23.925 9.3425 23.6725 9.3425 23.3938C9.3425 23.2 9.24625 22.8063 9.055 22.2138L7.7875 18.2688H8.925L9.83375 21.2188C10.0388 21.8888 10.125 22.3563 10.09 22.6225C10.59 21.2925 10.9375 19.8388 11.1337 18.2688H12.2337ZM27.64 23.3688H24.3525V16.4563H25.4588V22.5188H27.64V23.3688ZM23.49 23.5375L22.22 22.9125C22.3325 22.8175 22.4413 22.715 22.5388 22.6C23.08 21.9675 23.3488 21.0275 23.3488 19.7838C23.3488 17.4963 22.4513 16.3513 20.655 16.3513C19.775 16.3513 19.0875 16.6413 18.5925 17.2225C18.055 17.8575 17.785 18.7925 17.785 20.0288C17.785 21.2438 18.0225 22.1363 18.5025 22.7038C18.94 23.2163 19.5988 23.4725 20.4813 23.4725C20.8113 23.4725 21.1138 23.4313 21.3875 23.35L23.0437 24.315L23.4938 23.5375H23.49ZM19.375 21.985C19.0938 21.535 18.9538 20.81 18.9538 19.815C18.9538 18.0738 19.4838 17.2025 20.5413 17.2025C21.095 17.2025 21.5037 17.4113 21.7625 17.8275C22.0425 18.28 22.1825 18.9975 22.1825 19.9813C22.1825 21.7363 21.6525 22.6163 20.595 22.6163C20.0387 22.6163 19.6325 22.4075 19.3725 21.9913L19.375 21.985ZM17.3025 21.4538C17.3025 22.0413 17.0875 22.5238 16.6575 22.8988C16.2275 23.2738 15.6538 23.4613 14.9275 23.4613C14.2488 23.4613 13.5975 23.2463 12.9613 22.8175L13.2575 22.2225C13.805 22.4975 14.2987 22.6325 14.745 22.6325C15.16 22.6325 15.4863 22.5413 15.7238 22.3575C15.8425 22.268 15.9383 22.1517 16.0035 22.0181C16.0687 21.8845 16.1013 21.7374 16.0987 21.5888C16.0987 21.1763 15.8112 20.8263 15.2887 20.5325C14.8037 20.2663 13.835 19.7113 13.835 19.7113C13.3075 19.3275 13.045 18.9163 13.045 18.24C13.045 17.6775 13.2413 17.2275 13.6325 16.8838C14.0263 16.5363 14.5325 16.365 15.1575 16.365C15.7975 16.365 16.3825 16.535 16.9075 16.8775L16.6412 17.4725C16.2218 17.2882 15.7694 17.1904 15.3112 17.185C14.9575 17.185 14.6838 17.27 14.4938 17.4425C14.3973 17.5224 14.3196 17.6224 14.266 17.7356C14.2125 17.8488 14.1844 17.9723 14.1838 18.0975C14.1838 18.5075 14.4762 18.86 15.0162 19.16C15.5075 19.4288 16.5 19.9975 16.5 19.9975C17.0412 20.3788 17.31 20.785 17.31 21.4575L17.3025 21.4538ZM29.03 14.1388C28.3613 14.1213 27.8425 14.1888 27.4088 14.3738C27.2838 14.4238 27.0837 14.4238 27.0662 14.5825C27.135 14.6488 27.145 14.7575 27.2038 14.85C27.3038 15.0175 27.4762 15.2413 27.6362 15.3588C27.8112 15.4963 27.9862 15.6288 28.17 15.7463C28.495 15.9463 28.8638 16.065 29.1825 16.2663C29.3638 16.3838 29.5487 16.5325 29.7325 16.6575C29.8237 16.72 29.8825 16.8325 30 16.8725V16.8475C29.9425 16.7725 29.925 16.6638 29.8688 16.58C29.785 16.4963 29.7012 16.4213 29.6187 16.3388C29.3733 16.0153 29.0804 15.7309 28.75 15.495C28.4825 15.3125 27.8975 15.0575 27.7875 14.7513L27.7712 14.7338C27.9537 14.7175 28.1713 14.6513 28.3463 14.6013C28.63 14.5263 28.89 14.5425 29.1838 14.4688C29.3163 14.435 29.45 14.3938 29.5837 14.3513V14.2763C29.4337 14.1263 29.3213 13.9225 29.1663 13.7825C28.7336 13.4043 28.2722 13.0604 27.7863 12.7538C27.5238 12.5863 27.1912 12.4788 26.915 12.3363C26.815 12.2863 26.6475 12.2613 26.59 12.1775C26.44 11.995 26.3525 11.7525 26.2462 11.535C26.0008 11.0589 25.7727 10.574 25.5625 10.0813C25.4125 9.75376 25.3213 9.42751 25.1375 9.12751C24.275 7.70626 23.3413 6.84501 21.905 6.00251C21.5963 5.82751 21.2262 5.75251 20.835 5.66001C20.6262 5.65001 20.4175 5.63501 20.21 5.62626C20.0725 5.56751 19.94 5.40876 19.8225 5.33251C19.3475 5.03251 18.1175 4.38251 17.7675 5.24251C17.5425 5.78501 18.1012 6.32001 18.295 6.59501C18.4387 6.78626 18.62 7.00501 18.72 7.22001C18.7787 7.36501 18.795 7.51376 18.8538 7.66501C18.9863 8.03251 19.1125 8.44251 19.2875 8.78626C19.3788 8.96126 19.4788 9.14501 19.5963 9.30251C19.6638 9.39376 19.7787 9.43626 19.805 9.58626C19.6875 9.75626 19.68 10.0038 19.6125 10.2113C19.3125 11.1575 19.43 12.3275 19.855 13.0238C19.9887 13.2313 20.3075 13.6913 20.7337 13.515C21.1087 13.365 21.0262 12.89 21.1337 12.4713C21.1587 12.3713 21.1425 12.305 21.1937 12.2375V12.2563C21.3112 12.4913 21.4288 12.715 21.5363 12.95C21.7938 13.36 22.2438 13.785 22.62 14.0688C22.82 14.2188 22.9788 14.4788 23.2288 14.5713V14.5463H23.21C23.1563 14.4738 23.085 14.4388 23.0175 14.38C22.859 14.2249 22.7127 14.0577 22.58 13.88C22.2278 13.3988 21.9155 12.8896 21.6462 12.3575C21.5087 12.095 21.3938 11.8125 21.2838 11.5538C21.2338 11.4538 21.2338 11.3038 21.15 11.2538C21.025 11.4363 20.8413 11.595 20.75 11.82C20.5913 12.18 20.575 12.6225 20.515 13.0825C20.4813 13.0913 20.4975 13.0825 20.4813 13.1C20.2138 13.035 20.1225 12.7575 20.0225 12.525C19.7725 11.9313 19.7313 10.9775 19.9475 10.2938C20.0063 10.1188 20.2562 9.56626 20.1562 9.39876C20.1038 9.24001 19.9388 9.14876 19.8475 9.02001C19.7301 8.85244 19.6296 8.67365 19.5475 8.48626C19.3475 8.01876 19.2475 7.50126 19.03 7.03376C18.93 6.81751 18.755 6.59126 18.6125 6.39251C18.4538 6.16751 18.2788 6.00876 18.1525 5.74251C18.1113 5.65126 18.0525 5.50001 18.1187 5.40001C18.1362 5.33251 18.1712 5.30626 18.2362 5.28751C18.3462 5.19751 18.655 5.31501 18.7637 5.36501C19.0725 5.49001 19.3325 5.60751 19.5913 5.78251C19.7088 5.86501 19.835 6.02376 19.985 6.06501H20.16C20.4275 6.12376 20.7288 6.08251 20.9788 6.15626C21.4225 6.29876 21.8225 6.50626 22.1813 6.73126C23.2867 7.4374 24.1858 8.4232 24.7875 9.58876C24.8875 9.78126 24.9312 9.95751 25.0225 10.1575C25.1975 10.57 25.4137 10.9863 25.5912 11.385C25.7662 11.7788 25.935 12.18 26.1862 12.5063C26.3112 12.6813 26.8138 12.7725 27.0388 12.8638C27.205 12.9388 27.4637 13.0075 27.6137 13.0988C27.9012 13.2738 28.1812 13.4738 28.4512 13.6663C28.5887 13.7613 29.005 13.97 29.03 14.1388Z" fill="#404040"/>
</svg>
