<svg width="30" height="30" viewBox="0 0 30 30" fill="none" xmlns="http://www.w3.org/2000/svg">
<path d="M8.7625 12.7587H7.5825L6.93875 16.0687H7.98625C8.68125 16.0687 9.19875 15.9375 9.53875 15.6762C9.87875 15.4137 10.1075 14.9775 10.2262 14.365C10.3412 13.7775 10.2888 13.3625 10.0713 13.1212C9.8525 12.88 9.4175 12.7587 8.7625 12.7587ZM15 7.10999C6.71625 7.10999 0 10.6425 0 15C0 19.3575 6.71625 22.8912 15 22.8912C23.2837 22.8912 30 19.3575 30 15C30 10.6425 23.2837 7.10999 15 7.10999ZM10.925 16.4237C10.5987 16.7362 10.2062 16.9712 9.77875 17.1125C9.35875 17.2475 8.8225 17.3175 8.1725 17.3175H6.69625L6.2875 19.4187H4.565L6.1025 11.5112H9.415C10.4113 11.5112 11.1375 11.7725 11.595 12.2962C12.0525 12.8187 12.19 13.5487 12.0075 14.4862C11.9376 14.8572 11.8089 15.2146 11.6262 15.545C11.4475 15.8637 11.2137 16.1575 10.925 16.4237ZM15.955 17.3175L16.6338 13.8187C16.7125 13.4212 16.6825 13.1487 16.5488 13.005C16.415 12.86 16.1288 12.7875 15.69 12.7875H14.325L13.445 17.3187H11.735L13.2725 9.40999H14.9812L14.5725 11.5125H16.095C17.0538 11.5125 17.7137 11.68 18.0775 12.0137C18.4412 12.3475 18.55 12.8887 18.4063 13.6375L17.6912 17.3175H15.955ZM25.4513 14.4862C25.3825 14.8575 25.2537 15.2151 25.07 15.545C24.8912 15.8637 24.6575 16.1575 24.3688 16.4237C24.0423 16.7353 23.6508 16.9705 23.2225 17.1125C22.8025 17.2475 22.2662 17.3175 21.615 17.3175H20.14L19.7312 19.42H18.0087L19.5463 11.5125H22.8575C23.8537 11.5125 24.58 11.7737 25.0375 12.2975C25.495 12.8187 25.6338 13.5487 25.4513 14.4862ZM22.2075 12.7587H21.0287L20.3837 16.0687H21.4313C22.1275 16.0687 22.645 15.9375 22.9837 15.6762C23.3237 15.4137 23.5525 14.9775 23.6725 14.365C23.7875 13.7775 23.7337 13.3625 23.5162 13.1212C23.2987 12.88 22.8613 12.7587 22.2075 12.7587Z" fill="#404040"/>
</svg>
