<svg width="30" height="30" viewBox="0 0 30 30" fill="none" xmlns="http://www.w3.org/2000/svg">
<g clip-path="url(#clip0_119_1287)">
<path d="M15 0C23.2837 0 30 6.71625 30 15C30 23.2837 23.2837 30 15 30C6.71625 30 0 23.2837 0 15C0 6.71625 6.71625 0 15 0ZM12.0187 19.9975C12.2375 20.8038 12.2137 21.5575 11.9887 22.2375L11.9075 22.4625C11.8775 22.5387 11.8425 22.6125 11.81 22.6825C11.635 23.045 11.4025 23.3825 11.1162 23.695C10.2437 24.6437 9.02625 25.0037 8.50375 24.7012C7.94125 24.3737 8.22125 23.0325 9.23375 21.9637C10.3225 20.8162 11.8837 20.0775 11.8837 20.0775V20.0738L12.0187 19.9975ZM24.4075 6.42125C23.73 3.755 19.3113 2.87875 15.13 4.365C12.6438 5.24875 9.95 6.6375 8.01375 8.44875C5.71 10.6 5.34375 12.475 5.495 13.2588C6.02875 16.0225 9.81625 17.83 11.3737 19.1712V19.1788C10.915 19.4038 7.55375 21.09 6.76625 22.835C5.9225 24.6725 6.8975 25.9863 7.535 26.1538C9.50375 26.6988 11.5288 25.7038 12.6163 24.0925C13.6663 22.5163 13.5737 20.4912 13.1212 19.4975C13.7412 19.3287 14.4712 19.2538 15.4087 19.3675C18.035 19.6675 18.56 21.3175 18.4462 21.9925C18.3337 22.6662 17.7925 23.06 17.6038 23.1725C17.4163 23.2863 17.36 23.3225 17.3775 23.3987C17.3963 23.5112 17.4913 23.5113 17.64 23.4925C17.8463 23.455 19.01 22.93 19.0663 21.6537C19.1225 20.0412 17.5838 18.2425 14.8475 18.2788C13.7225 18.2988 13.0088 18.3925 12.5038 18.5987C12.4663 18.5425 12.4275 18.505 12.3725 18.4675C10.685 16.6488 7.55375 15.3738 7.685 12.955C7.7225 12.0738 8.04125 9.75 13.685 6.9375C18.3162 4.63 22.0112 5.26875 22.6487 6.675C23.565 8.68 20.6787 12.4125 15.86 12.955C14.0225 13.1613 13.0662 12.45 12.8212 12.1862C12.56 11.905 12.5225 11.8863 12.4287 11.9438C12.2787 12.0188 12.3725 12.2625 12.4287 12.4125C12.5787 12.7875 13.16 13.4437 14.1737 13.7812C15.0537 14.0625 17.2112 14.23 19.7987 13.2187C22.7037 12.095 24.9725 8.9625 24.3162 6.3375L24.4075 6.42125Z" fill="#404040"/>
</g>
<defs>
<clipPath id="clip0_119_1287">
<rect width="30" height="30" fill="white"/>
</clipPath>
</defs>
</svg>
