<svg width="67" height="28" viewBox="0 0 67 28" fill="none" xmlns="http://www.w3.org/2000/svg">
<g style="mix-blend-mode:multiply">
<path d="M0.789773 27V23.0625L13.1648 6.54545H0.840909V0.818181H22.2159V4.75568L9.84091 21.2727H22.1648V27H0.789773Z" fill="#0F172A"/>
<path d="M31.2513 27L23.5297 0.818181H31.4559L35.0354 16.9261H35.24L39.4843 0.818181H45.7229L49.9672 16.9773H50.1718L53.7513 0.818181H61.6775L53.9559 27H47.1547L42.7059 12.375H42.5013L38.0525 27H31.2513ZM63.3556 27.4091C62.367 27.4091 61.519 27.0639 60.8116 26.3736C60.1127 25.6747 59.7676 24.8267 59.7761 23.8295C59.7676 22.858 60.1127 22.027 60.8116 21.3366C61.519 20.6463 62.367 20.3011 63.3556 20.3011C64.2931 20.3011 65.1198 20.6463 65.8357 21.3366C66.5602 22.027 66.9266 22.858 66.9352 23.8295C66.9266 24.4943 66.7519 25.0994 66.411 25.6449C66.0786 26.1818 65.644 26.6122 65.107 26.9361C64.5701 27.2514 63.9863 27.4091 63.3556 27.4091Z" fill="#E5E5E5"/>
</g>
</svg>
