<svg width="24" height="24" viewBox="0 0 24 24" fill="none" xmlns="http://www.w3.org/2000/svg">
<path fill-rule="evenodd" clip-rule="evenodd" d="M11.5512 2C5.71474 2 1 6.66868 1 12.4399C1 17.0569 4.01463 20.9676 8.2211 22.3458C8.7469 22.4492 8.9397 22.1218 8.9397 21.8462C8.9397 21.605 8.92217 20.7781 8.92217 19.9167C5.99518 20.5369 5.38173 18.6763 5.38173 18.6763C4.90851 17.4704 4.20743 17.1603 4.20743 17.1603C3.24345 16.5229 4.27754 16.5229 4.27754 16.5229C5.34668 16.5918 5.90754 17.591 5.90754 17.591C6.85399 19.1759 8.36131 18.728 8.97475 18.4524C9.06239 17.7805 9.34282 17.3153 9.64078 17.0569C7.30969 16.8157 4.8384 15.9199 4.8384 11.9059C4.8384 10.7688 5.25904 9.83856 5.92507 9.09777C5.81991 8.83936 5.45184 7.77125 6.03023 6.32413C6.03023 6.32413 6.9241 6.04848 8.92217 7.39224C9.78099 7.16828 10.6749 7.04769 11.5687 7.04769C12.4626 7.04769 13.374 7.16828 14.2153 7.39224C16.2309 6.04848 17.1072 6.32413 17.1072 6.32413C17.6856 7.75402 17.3176 8.83936 17.2124 9.09777C17.896 9.82133 18.2991 10.7516 18.2991 11.9059C18.2991 15.9199 15.8453 16.7985 13.4792 17.0569C13.8648 17.3842 14.1978 18.0044 14.1978 18.9864C14.1978 20.3819 14.1803 21.5189 14.1803 21.8634C14.1803 22.1391 14.373 22.4664 14.8989 22.363C19.0878 20.9848 22.12 17.0742 22.12 12.4572C22.1375 6.68591 17.4052 2.01723 11.5863 2.01723" fill="#1E293B"/>
</svg>
