<svg width="24" height="24" viewBox="0 0 24 24" fill="none" xmlns="http://www.w3.org/2000/svg">
<path d="M17.0417 3H5.95833C3.77685 3 2 4.74651 2 6.89073V17.7848C2 19.929 3.77685 21.6755 5.95833 21.6755H17.0417C19.2231 21.6755 21 19.929 21 17.7848V6.89073C21 4.74651 19.2231 3 17.0417 3ZM8.33334 17.7848H5.95833V9.22517H8.33334V17.7848ZM7.15463 8.23952C6.39815 8.23952 5.76481 7.617 5.76481 6.87344C5.76481 6.12988 6.38055 5.50736 7.15463 5.50736C7.9287 5.50736 8.54444 6.12988 8.54444 6.87344C8.54444 7.617 7.9287 8.23952 7.15463 8.23952ZM17.8333 17.7848H15.4583V13.4272C15.4583 10.7988 12.2917 11.0063 12.2917 13.4272V17.7848H9.91666V9.22517H12.2917V10.5912C13.4 8.58536 17.8333 8.42973 17.8333 12.5107V17.7675V17.7848Z" fill="#1E293B"/>
</svg>
