<svg width="35" height="35" viewBox="0 0 35 35" fill="none" xmlns="http://www.w3.org/2000/svg">
<path d="M26.75 3H9.25C5.80556 3 3 5.75764 3 9.14326V26.3444C3 29.73 5.80556 32.4877 9.25 32.4877H26.75C30.1945 32.4877 33 29.73 33 26.3444V9.14326C33 5.75764 30.1945 3 26.75 3ZM13 26.3444H9.25V12.8292H13V26.3444ZM11.1389 11.2729C9.94445 11.2729 8.94444 10.29 8.94444 9.11596C8.94444 7.94191 9.91667 6.95899 11.1389 6.95899C12.3611 6.95899 13.3333 7.94191 13.3333 9.11596C13.3333 10.29 12.3611 11.2729 11.1389 11.2729ZM28 26.3444H24.25V19.4639C24.25 15.3138 19.25 15.6415 19.25 19.4639V26.3444H15.5V12.8292H19.25V14.9862C21 11.819 28 11.5733 28 18.0169V26.3171V26.3444Z" fill="#94A3B8"/>
</svg>
