<svg width="24" height="24" viewBox="0 0 24 24" fill="none" xmlns="http://www.w3.org/2000/svg">
<path d="M4.30773 19.5C3.8026 19.5 3.37503 19.325 3.02503 18.975C2.67503 18.625 2.50003 18.1974 2.50003 17.6923V6.30773C2.50003 5.8026 2.67503 5.37503 3.02503 5.02503C3.37503 4.67503 3.8026 4.50003 4.30773 4.50003H19.6923C20.1974 4.50003 20.625 4.67503 20.975 5.02503C21.325 5.37503 21.5 5.8026 21.5 6.30773V17.6923C21.5 18.1974 21.325 18.625 20.975 18.975C20.625 19.325 20.1974 19.5 19.6923 19.5H4.30773ZM12 12.5577L20 7.44228L19.8462 6.00001L12 11L4.15386 6.00001L4.00001 7.44228L12 12.5577Z" fill="#1E293B"/>
</svg>
